<svg width="40" height="40" viewBox="0 0 40 40" fill="none" xmlns="http://www.w3.org/2000/svg">
  <!-- Cobra body (coiled at bottom) -->
  <path d="M20 35 Q15 30 20 25 Q25 30 20 35" fill="#D4AF37" stroke="#B8860B" stroke-width="1"/>
  <path d="M20 30 Q17 27 20 24 Q23 27 20 30" fill="#CD853F" stroke="#A0522D" stroke-width="0.5"/>
  
  <!-- Cobra head -->
  <ellipse cx="20" cy="12" rx="6" ry="4" fill="#D4AF37" stroke="#B8860B" stroke-width="1"/>
  
  <!-- Cobra hood (widely flared) -->
  <path d="M8 12 Q20 2 32 12" stroke="#8B4513" stroke-width="2" fill="none"/>
  <path d="M8 12 Q20 4 32 12" stroke="#D4AF37" stroke-width="1.5" fill="none"/>
  
  <!-- Hood interior (teal/blue-green) -->
  <path d="M10 12 Q20 6 30 12" fill="#20B2AA" stroke="#008B8B" stroke-width="0.5"/>
  <path d="M12 12 Q20 8 28 12" fill="#00CED1" stroke="#20B2AA" stroke-width="0.5"/>
  
  <!-- Hood outline (golden yellow) -->
  <path d="M8 12 Q20 2 32 12" stroke="#FFD700" stroke-width="0.5" fill="none"/>
  
  <!-- Eyes -->
  <circle cx="17" cy="10" r="1.2" fill="#FFFFFF"/>
  <circle cx="23" cy="10" r="1.2" fill="#FFFFFF"/>
  <circle cx="17" cy="10" r="0.6" fill="#8B4513"/>
  <circle cx="23" cy="10" r="0.6" fill="#8B4513"/>
  <circle cx="17.2" cy="9.8" r="0.2" fill="#FFFFFF"/>
  <circle cx="23.2" cy="9.8" r="0.2" fill="#FFFFFF"/>
  
  <!-- Tongue (bright red, forked) -->
  <path d="M19 14 L18 16" stroke="#FF0000" stroke-width="1.5" fill="none"/>
  <path d="M21 14 L22 16" stroke="#FF0000" stroke-width="1.5" fill="none"/>
  <path d="M19 14 L20 16" stroke="#FF0000" stroke-width="1" fill="none"/>
  
  <!-- Head markings -->
  <path d="M16 8 Q20 6 24 8" stroke="#8B4513" stroke-width="0.5" fill="none"/>
  <path d="M15 9 Q20 7 25 9" stroke="#8B4513" stroke-width="0.5" fill="none"/>
  
  <!-- Body scales pattern -->
  <circle cx="18" cy="28" r="0.8" fill="#8B4513"/>
  <circle cx="22" cy="26" r="0.8" fill="#8B4513"/>
  <circle cx="18" cy="32" r="0.8" fill="#8B4513"/>
  <circle cx="22" cy="30" r="0.8" fill="#8B4513"/>
</svg>
