<svg width="32" height="32" viewBox="0 0 32 32" fill="none" xmlns="http://www.w3.org/2000/svg">
  <!-- Cobra body (coiled at bottom) -->
  <path d="M16 28 Q12 24 16 20 Q20 24 16 28" fill="#D4AF37" stroke="#B8860B" stroke-width="0.8"/>
  <path d="M16 24 Q14 22 16 20 Q18 22 16 24" fill="#CD853F" stroke="#A0522D" stroke-width="0.4"/>
  
  <!-- Cobra head -->
  <ellipse cx="16" cy="10" rx="5" ry="3" fill="#D4AF37" stroke="#B8860B" stroke-width="0.8"/>
  
  <!-- Cobra hood (widely flared) -->
  <path d="M6 10 Q16 2 26 10" stroke="#8B4513" stroke-width="1.5" fill="none"/>
  <path d="M6 10 Q16 3 26 10" stroke="#D4AF37" stroke-width="1" fill="none"/>
  
  <!-- Hood interior (teal/blue-green) -->
  <path d="M8 10 Q16 5 24 10" fill="#20B2AA" stroke="#008B8B" stroke-width="0.4"/>
  <path d="M10 10 Q16 6 22 10" fill="#00CED1" stroke="#20B2AA" stroke-width="0.4"/>
  
  <!-- Hood outline (golden yellow) -->
  <path d="M6 10 Q16 2 26 10" stroke="#FFD700" stroke-width="0.4" fill="none"/>
  
  <!-- Eyes -->
  <circle cx="14" cy="8" r="1" fill="#FFFFFF"/>
  <circle cx="18" cy="8" r="1" fill="#FFFFFF"/>
  <circle cx="14" cy="8" r="0.5" fill="#8B4513"/>
  <circle cx="18" cy="8" r="0.5" fill="#8B4513"/>
  <circle cx="14.2" cy="7.8" r="0.2" fill="#FFFFFF"/>
  <circle cx="18.2" cy="7.8" r="0.2" fill="#FFFFFF"/>
  
  <!-- Tongue (bright red, forked) -->
  <path d="M15 12 L14 14" stroke="#FF0000" stroke-width="1" fill="none"/>
  <path d="M17 12 L18 14" stroke="#FF0000" stroke-width="1" fill="none"/>
  <path d="M15 12 L16 14" stroke="#FF0000" stroke-width="0.8" fill="none"/>
  
  <!-- Head markings -->
  <path d="M13 7 Q16 6 19 7" stroke="#8B4513" stroke-width="0.4" fill="none"/>
  <path d="M12 8 Q16 6 20 8" stroke="#8B4513" stroke-width="0.4" fill="none"/>
  
  <!-- Body scales pattern -->
  <circle cx="14" cy="22" r="0.6" fill="#8B4513"/>
  <circle cx="18" cy="21" r="0.6" fill="#8B4513"/>
  <circle cx="14" cy="26" r="0.6" fill="#8B4513"/>
  <circle cx="18" cy="25" r="0.6" fill="#8B4513"/>
</svg>
